<mxfile host="65bd71144e">
    <diagram name="View Cities Sequence" id="cities-sequence">
        <mxGraphModel dx="473" dy="270" grid="1" gridSize="10" guides="1" tooltips="1" connect="1" arrows="1" fold="1" page="1" pageScale="1" pageWidth="850" pageHeight="1100" math="0" shadow="0">
            <root>
                <mxCell id="0"/>
                <mxCell id="1" parent="0"/>
                <mxCell id="2" value="Visitor/Member" style="shape=umlActor;verticalLabelPosition=bottom;verticalAlign=top;html=1;" parent="1" vertex="1">
                    <mxGeometry x="80" y="60" width="30" height="60" as="geometry"/>
                </mxCell>
                <mxCell id="3" value="Homepage" style="shape=umlLifeline;perimeter=lifelinePerimeter;whiteSpace=wrap;html=1;container=1;collapsible=0;recursiveResize=0;outlineConnect=0;" parent="1" vertex="1">
                    <mxGeometry x="200" y="80" width="100" height="500" as="geometry"/>
                </mxCell>
                <mxCell id="4" value="Cities Controller" style="shape=umlLifeline;perimeter=lifelinePerimeter;whiteSpace=wrap;html=1;container=1;collapsible=0;recursiveResize=0;outlineConnect=0;" parent="1" vertex="1">
                    <mxGeometry x="360" y="80" width="100" height="500" as="geometry"/>
                </mxCell>
                <mxCell id="5" value="Cities Service" style="shape=umlLifeline;perimeter=lifelinePerimeter;whiteSpace=wrap;html=1;container=1;collapsible=0;recursiveResize=0;outlineConnect=0;" parent="1" vertex="1">
                    <mxGeometry x="520" y="80" width="100" height="500" as="geometry"/>
                </mxCell>
                <mxCell id="6" value="Database" style="shape=umlLifeline;perimeter=lifelinePerimeter;whiteSpace=wrap;html=1;container=1;collapsible=0;recursiveResize=0;outlineConnect=0;" parent="1" vertex="1">
                    <mxGeometry x="680" y="80" width="100" height="500" as="geometry"/>
                </mxCell>
                <mxCell id="7" value="" style="html=1;points=[];perimeter=orthogonalPerimeter;" parent="1" vertex="1">
                    <mxGeometry x="90" y="160" width="10" height="400" as="geometry"/>
                </mxCell>
                <mxCell id="8" value="" style="html=1;points=[];perimeter=orthogonalPerimeter;" parent="1" vertex="1">
                    <mxGeometry x="245" y="170" width="10" height="380" as="geometry"/>
                </mxCell>
                <mxCell id="9" value="" style="html=1;points=[];perimeter=orthogonalPerimeter;" parent="1" vertex="1">
                    <mxGeometry x="405" y="190" width="10" height="340" as="geometry"/>
                </mxCell>
                <mxCell id="10" value="" style="html=1;points=[];perimeter=orthogonalPerimeter;" parent="1" vertex="1">
                    <mxGeometry x="565" y="210" width="10" height="300" as="geometry"/>
                </mxCell>
                <mxCell id="11" value="" style="html=1;points=[];perimeter=orthogonalPerimeter;" parent="1" vertex="1">
                    <mxGeometry x="725" y="230" width="10" height="260" as="geometry"/>
                </mxCell>
                <mxCell id="12" value="Navigate to cities page" style="html=1;verticalAlign=bottom;endArrow=block;entryX=0;entryY=0;rounded=0;" parent="1" source="7" target="8" edge="1">
                    <mxGeometry relative="1" as="geometry">
                        <mxPoint x="175" y="170" as="sourcePoint"/>
                    </mxGeometry>
                </mxCell>
                <mxCell id="13" value="Request cities list" style="html=1;verticalAlign=bottom;endArrow=block;entryX=0;entryY=0.074;rounded=0;entryDx=0;entryDy=0;entryPerimeter=0;" parent="1" source="8" target="9" edge="1">
                    <mxGeometry relative="1" as="geometry">
                        <mxPoint x="175" y="215" as="sourcePoint"/>
                    </mxGeometry>
                </mxCell>
                <mxCell id="14" value="Get cities data" style="html=1;verticalAlign=bottom;endArrow=block;entryX=0;entryY=0;rounded=0;" parent="1" source="9" target="10" edge="1">
                    <mxGeometry relative="1" as="geometry">
                        <mxPoint x="490" y="210" as="sourcePoint"/>
                    </mxGeometry>
                </mxCell>
                <mxCell id="15" value="Query cities" style="html=1;verticalAlign=bottom;endArrow=block;entryX=0;entryY=0;rounded=0;" parent="1" source="10" target="11" edge="1">
                    <mxGeometry relative="1" as="geometry">
                        <mxPoint x="650" y="230" as="sourcePoint"/>
                    </mxGeometry>
                </mxCell>
                <mxCell id="16" value="Return cities data" style="html=1;verticalAlign=bottom;endArrow=open;dashed=1;endSize=8;exitX=0;exitY=0.154;rounded=0;exitDx=0;exitDy=0;exitPerimeter=0;" parent="1" source="11" target="10" edge="1">
                    <mxGeometry relative="1" as="geometry">
                        <mxPoint x="650" y="270" as="targetPoint"/>
                    </mxGeometry>
                </mxCell>
                <mxCell id="17" value="Process cities data" style="html=1;verticalAlign=bottom;endArrow=block;rounded=0;" parent="1" edge="1">
                    <mxGeometry relative="1" as="geometry">
                        <mxPoint x="575" y="300" as="sourcePoint"/>
                        <mxPoint x="575" y="330" as="targetPoint"/>
                        <Array as="points">
                            <mxPoint x="605" y="300"/>
                            <mxPoint x="605" y="330"/>
                        </Array>
                    </mxGeometry>
                </mxCell>
                <mxCell id="18" value="Return processed cities" style="html=1;verticalAlign=bottom;endArrow=open;dashed=1;endSize=8;rounded=0;" parent="1" source="10" target="9" edge="1">
                    <mxGeometry relative="1" as="geometry">
                        <mxPoint x="490" y="350" as="targetPoint"/>
                        <mxPoint x="560" y="350" as="sourcePoint"/>
                    </mxGeometry>
                </mxCell>
                <mxCell id="19" value="Format cities for view" style="html=1;verticalAlign=bottom;endArrow=block;rounded=0;" parent="1" edge="1">
                    <mxGeometry relative="1" as="geometry">
                        <mxPoint x="415" y="370" as="sourcePoint"/>
                        <mxPoint x="415" y="400" as="targetPoint"/>
                        <Array as="points">
                            <mxPoint x="445" y="370"/>
                            <mxPoint x="445" y="400"/>
                        </Array>
                    </mxGeometry>
                </mxCell>
                <mxCell id="20" value="Return cities view" style="html=1;verticalAlign=bottom;endArrow=open;dashed=1;endSize=8;rounded=0;" parent="1" source="9" target="8" edge="1">
                    <mxGeometry relative="1" as="geometry">
                        <mxPoint x="330" y="420" as="targetPoint"/>
                        <mxPoint x="400" y="420" as="sourcePoint"/>
                    </mxGeometry>
                </mxCell>
                <mxCell id="21" value="Display cities list" style="html=1;verticalAlign=bottom;endArrow=open;dashed=1;endSize=8;rounded=0;" parent="1" source="8" target="7" edge="1">
                    <mxGeometry relative="1" as="geometry">
                        <mxPoint x="175" y="440" as="targetPoint"/>
                        <mxPoint x="245" y="440" as="sourcePoint"/>
                    </mxGeometry>
                </mxCell>
                <mxCell id="22" value="Select city for details" style="html=1;verticalAlign=bottom;endArrow=block;rounded=0;" parent="1" edge="1">
                    <mxGeometry relative="1" as="geometry">
                        <mxPoint x="100" y="460" as="sourcePoint"/>
                        <mxPoint x="245" y="460" as="targetPoint"/>
                    </mxGeometry>
                </mxCell>
                <mxCell id="23" value="Navigate to city details page" style="html=1;verticalAlign=bottom;endArrow=open;dashed=1;endSize=8;rounded=0;" parent="1" edge="1">
                    <mxGeometry relative="1" as="geometry">
                        <mxPoint x="100" y="500" as="targetPoint"/>
                        <mxPoint x="245" y="500" as="sourcePoint"/>
                    </mxGeometry>
                </mxCell>
            </root>
        </mxGraphModel>
    </diagram>
</mxfile>